<svg width="203" height="52" viewBox="0 0 203 52" fill="none" xmlns="http://www.w3.org/2000/svg">
<path d="M23.38 51L14.036 34.04H11.412V51H0.468V6.072H18.836C22.3773 6.072 25.3853 6.69066 27.86 7.928C30.3773 9.16533 32.2547 10.872 33.492 13.048C34.7293 15.1813 35.348 17.5707 35.348 20.216C35.348 23.2027 34.4947 25.8693 32.788 28.216C31.124 30.5627 28.6493 32.2267 25.364 33.208L35.732 51H23.38ZM11.412 26.296H18.196C20.2013 26.296 21.6947 25.8053 22.676 24.824C23.7 23.8427 24.212 22.456 24.212 20.664C24.212 18.9573 23.7 17.6133 22.676 16.632C21.6947 15.6507 20.2013 15.16 18.196 15.16H11.412V26.296ZM40.042 33.08C40.042 29.4107 40.7247 26.1893 42.09 23.416C43.498 20.6427 45.3967 18.5093 47.786 17.016C50.1753 15.5227 52.842 14.776 55.786 14.776C58.3033 14.776 60.5007 15.288 62.378 16.312C64.298 17.336 65.77 18.68 66.794 20.344V15.288H77.738V51H66.794V45.944C65.7273 47.608 64.234 48.952 62.314 49.976C60.4367 51 58.2393 51.512 55.722 51.512C52.8207 51.512 50.1753 50.7653 47.786 49.272C45.3967 47.736 43.498 45.5813 42.09 42.808C40.7247 39.992 40.042 36.7493 40.042 33.08ZM66.794 33.144C66.794 30.4133 66.026 28.2587 64.49 26.68C62.9967 25.1013 61.162 24.312 58.986 24.312C56.81 24.312 54.954 25.1013 53.418 26.68C51.9247 28.216 51.178 30.3493 51.178 33.08C51.178 35.8107 51.9247 37.9867 53.418 39.608C54.954 41.1867 56.81 41.976 58.986 41.976C61.162 41.976 62.9967 41.1867 64.49 39.608C66.026 38.0293 66.794 35.8747 66.794 33.144ZM103.576 24.376H97.6875V51H86.7435V24.376H82.7755V15.288H86.7435V14.264C86.7435 9.86933 88.0022 6.54133 90.5195 4.28C93.0368 1.976 96.7275 0.823997 101.592 0.823997C102.402 0.823997 103 0.845331 103.384 0.887997V10.168C101.293 10.04 99.8208 10.3387 98.9675 11.064C98.1142 11.7893 97.6875 13.0907 97.6875 14.968V15.288H103.576V24.376ZM106.542 33.08C106.542 29.4107 107.225 26.1893 108.59 23.416C109.998 20.6427 111.897 18.5093 114.286 17.016C116.675 15.5227 119.342 14.776 122.286 14.776C124.803 14.776 127.001 15.288 128.878 16.312C130.798 17.336 132.27 18.68 133.294 20.344V15.288H144.238V51H133.294V45.944C132.227 47.608 130.734 48.952 128.814 49.976C126.937 51 124.739 51.512 122.222 51.512C119.321 51.512 116.675 50.7653 114.286 49.272C111.897 47.736 109.998 45.5813 108.59 42.808C107.225 39.992 106.542 36.7493 106.542 33.08ZM133.294 33.144C133.294 30.4133 132.526 28.2587 130.99 26.68C129.497 25.1013 127.662 24.312 125.486 24.312C123.31 24.312 121.454 25.1013 119.918 26.68C118.425 28.216 117.678 30.3493 117.678 33.08C117.678 35.8107 118.425 37.9867 119.918 39.608C121.454 41.1867 123.31 41.976 125.486 41.976C127.662 41.976 129.497 41.1867 130.99 39.608C132.526 38.0293 133.294 35.8747 133.294 33.144ZM185.819 32.568C185.819 33.592 185.756 34.6587 185.628 35.768H160.86C161.03 37.9867 161.734 39.6933 162.972 40.888C164.252 42.04 165.809 42.616 167.644 42.616C170.374 42.616 172.273 41.464 173.34 39.16H184.988C184.39 41.5067 183.302 43.6187 181.724 45.496C180.188 47.3733 178.246 48.8453 175.9 49.912C173.553 50.9787 170.929 51.512 168.028 51.512C164.529 51.512 161.414 50.7653 158.684 49.272C155.953 47.7787 153.82 45.6453 152.284 42.872C150.748 40.0987 149.98 36.856 149.98 33.144C149.98 29.432 150.726 26.1893 152.22 23.416C153.756 20.6427 155.889 18.5093 158.62 17.016C161.35 15.5227 164.486 14.776 168.028 14.776C171.484 14.776 174.556 15.5013 177.244 16.952C179.932 18.4027 182.022 20.472 183.516 23.16C185.052 25.848 185.819 28.984 185.819 32.568ZM174.62 29.688C174.62 27.8107 173.98 26.3173 172.7 25.208C171.42 24.0987 169.82 23.544 167.9 23.544C166.065 23.544 164.508 24.0773 163.228 25.144C161.99 26.2107 161.222 27.7253 160.924 29.688H174.62ZM202.537 3.64V51H191.593V3.64H202.537Z" fill="#141414"/>
</svg>
